<svg xmlns="http://www.w3.org/2000/svg" version="1.1" xmlns:xlink="http://www.w3.org/1999/xlink" xmlns:svgjs="http://svgjs.dev/svgjs" width="108.461" height="46.13"><svg xmlns="http://www.w3.org/2000/svg" xmlns:xlink="http://www.w3.org/1999/xlink" viewBox="0 0 108.461 46.13"><defs><clipPath id="SvgjsClipPath1007"><rect width="108.461" height="46.13" fill="none"></rect></clipPath><clipPath id="SvgjsClipPath1006"><rect width="46.13" height="46.13" fill="none"></rect></clipPath></defs><g clip-path="url(#a)"><g clip-path="url(#a)"><g opacity="0.95"><g clip-path="url(#c)"><rect width="46.13" height="46.13" fill="#f3ccd5"></rect></g></g><path d="M44.119,57.1q-5.125,0-7.426-2.114t-2.3-6.865v-12.8a3.65,3.65,0,0,0-.187-1.384,1.12,1.12,0,0,0-.767-.58,7.937,7.937,0,0,0-1.964-.168V31.959H41.911v1.235a8.186,8.186,0,0,0-1.983.168,1.13,1.13,0,0,0-.786.58,3.644,3.644,0,0,0-.187,1.384V48.2a9.27,9.27,0,0,0,1.365,5.5,4.626,4.626,0,0,0,3.985,1.871q5.275,0,5.275-7.37V35.326a3.644,3.644,0,0,0-.187-1.384,1.12,1.12,0,0,0-.767-.58,7.937,7.937,0,0,0-1.964-.168V31.959H57.1v1.235a9.413,9.413,0,0,0-2.02.149,1.009,1.009,0,0,0-.767.58,4.191,4.191,0,0,0-.168,1.4v12.8q0,4.677-2.413,6.828T44.119,57.1m31.839-3.554a3.147,3.147,0,0,0,.168,1.178.989.989,0,0,0,.692.543,6.341,6.341,0,0,0,1.609.149v1.235H69.485V55.416a7.325,7.325,0,0,0,1.421-.093.808.808,0,0,0,.58-.43,2.823,2.823,0,0,0,.168-1.16V44.754a3.9,3.9,0,0,0-.842-2.694,3.032,3.032,0,0,0-2.376-.935,5.572,5.572,0,0,0-3.891,1.758V53.732a2.823,2.823,0,0,0,.168,1.16.808.808,0,0,0,.58.43,6.783,6.783,0,0,0,1.347.093v1.235H57.775V55.416a6.08,6.08,0,0,0,1.609-.149.92.92,0,0,0,.636-.524,3.483,3.483,0,0,0,.15-1.2V42.734a2.824,2.824,0,0,0-.225-1.366.9.9,0,0,0-.823-.355H58V39.74l5.388-.861h1.047v2.47h.037a11.323,11.323,0,0,1,3.255-2,8.867,8.867,0,0,1,3.217-.655,4.765,4.765,0,0,1,3.685,1.441,5.768,5.768,0,0,1,1.328,4.059Zm9.5-17.172a2.345,2.345,0,0,1-1.758-.692,2.394,2.394,0,0,1-.674-1.74,2.46,2.46,0,0,1,.674-1.758,2.313,2.313,0,0,1,1.758-.711,2.359,2.359,0,0,1,1.8.711,2.459,2.459,0,0,1,.673,1.758,2.326,2.326,0,0,1-.711,1.74,2.423,2.423,0,0,1-1.758.692M81.008,56.651V55.416a5.438,5.438,0,0,0,1.609-.168.975.975,0,0,0,.636-.543,3.337,3.337,0,0,0,.15-1.16V42.734a3.032,3.032,0,0,0-.206-1.384.911.911,0,0,0-.842-.337H81.233V39.74l5.5-.861H87.78V53.546a3.484,3.484,0,0,0,.149,1.2.92.92,0,0,0,.636.524,6.08,6.08,0,0,0,1.609.149v1.235Zm20.652.374A7.987,7.987,0,0,1,95.58,54.8q-2.114-2.226-2.114-6.753,0-4.677,2.208-7.014a8.327,8.327,0,0,1,6.36-2.339,9.615,9.615,0,0,1,3.853.674,5.025,5.025,0,0,1,2.245,1.74,4.07,4.07,0,0,1,.711,2.3,2.514,2.514,0,0,1-.58,1.758,2.044,2.044,0,0,1-1.59.636,1.987,1.987,0,0,1-1.553-.6,2.2,2.2,0,0,1-.543-1.534,2.277,2.277,0,0,1,.168-.935q.169-.375.206-.449a1.582,1.582,0,0,0,.262-.748,1.106,1.106,0,0,0-.674-.973,4.075,4.075,0,0,0-1.945-.374,4,4,0,0,0-3.367,1.5q-1.16,1.5-1.16,5.425A10.547,10.547,0,0,0,99.3,52.835a4.251,4.251,0,0,0,3.816,1.871,4.608,4.608,0,0,0,3.2-.973,8.342,8.342,0,0,0,1.815-2.469l.935.561a8,8,0,0,1-2.563,3.872,7.727,7.727,0,0,1-4.845,1.328m19.305,0q-4.489,0-6.6-2.207T112.248,47.9q0-4.714,2.132-6.977t6.66-2.264q4.452,0,6.547,2.226t2.095,6.94q0,4.751-2.114,6.977t-6.6,2.226m0-1.5a3.3,3.3,0,0,0,3.143-1.833,12.549,12.549,0,0,0,.973-5.649,13.4,13.4,0,0,0-1.01-5.986A3.551,3.551,0,0,0,117.8,42a13.008,13.008,0,0,0-.991,5.855A12.881,12.881,0,0,0,117.8,53.7a3.339,3.339,0,0,0,3.161,1.833" transform="translate(-21.222 -21.221)" fill="#282727"></path></g></g></svg><style>@media (prefers-color-scheme: light) { :root { filter: none; } }
@media (prefers-color-scheme: dark) { :root { filter: none; } }
</style></svg>