<svg xmlns="http://www.w3.org/2000/svg" xmlns:xlink="http://www.w3.org/1999/xlink" viewBox="0 0 27.941 27.94">
  <defs>
    <clipPath id="clip-path">
      <rect width="27.941" height="27.94" fill="#5d5d5d"/>
    </clipPath>
  </defs>
  <g clip-path="url(#clip-path)">
    <path d="M26.612,3.355l0,0L26.6,3.344h0l-.011-.01L24.6,1.342l0,0a4.578,4.578,0,0,0-6.472,0L16.249,3.215l-.712.711L0,19.464V27.94H8.476L24.013,12.4l.712-.712L26.6,9.816a4.577,4.577,0,0,0,.013-6.459ZM7.453,25.47H2.471V20.488L17.284,5.674l4.982,4.982Zm17.4-17.4L23.69,9.233,18.708,4.25l1.163-1.163a2.106,2.106,0,0,1,2.978,0l2,2a2.107,2.107,0,0,1,0,2.979" transform="translate(0 0)" fill="#5d5d5d"/>
  </g>
</svg>
