<svg xmlns="http://www.w3.org/2000/svg" xmlns:xlink="http://www.w3.org/1999/xlink" viewBox="0 0 23.49 18.334">
  <defs>
    <clipPath id="clip-path">
      <rect width="23.49" height="18.334" fill="#9dc6c0"/>
    </clipPath>
  </defs>
  <g clip-path="url(#clip-path)">
    <path d="M23.432,2.485a3.082,3.082,0,0,0-.639-1.352A2.6,2.6,0,0,0,22.585.9,3.1,3.1,0,0,0,20.4,0H3.085A3.064,3.064,0,0,0,.9.9a2.707,2.707,0,0,0-.21.232A3.046,3.046,0,0,0,.06,2.487a2.98,2.98,0,0,0-.06.6V15.249A3.1,3.1,0,0,0,.9,17.43c.07.069.139.133.212.2a3.093,3.093,0,0,0,1.969.709H20.4a3.069,3.069,0,0,0,1.971-.714,2.672,2.672,0,0,0,.21-.19,3.068,3.068,0,0,0,.632-.911l.02-.048a3.042,3.042,0,0,0,.252-1.222V3.085a3.161,3.161,0,0,0-.058-.6M1.6,1.969a1.451,1.451,0,0,1,.17-.2,1.852,1.852,0,0,1,1.317-.547H20.4a1.838,1.838,0,0,1,1.318.547,1.859,1.859,0,0,1,.168.2l.132.178L12.778,10.2a1.572,1.572,0,0,1-2.066,0L1.477,2.145Zm-.37,13.388a.736.736,0,0,1-.006-.107V3.337L8.4,9.6l-7.1,6.192Zm20.1,1.511a1.851,1.851,0,0,1-.924.245H3.085a1.85,1.85,0,0,1-.924-.245l-.29-.168L9.208,10.3l.8.7a2.639,2.639,0,0,0,3.468,0l.8-.7,7.335,6.4Zm.939-1.618a.77.77,0,0,1-.005.106l-.064.435L15.095,9.6,22.268,3.34Z" transform="translate(0 0)" fill="#9dc6c0"/>
  </g>
</svg>
