<svg xmlns="http://www.w3.org/2000/svg" xmlns:xlink="http://www.w3.org/1999/xlink" viewBox="0 0 14 10.927"><defs><clipPath id="a"><rect width="14" height="10.927"/></clipPath></defs><g clip-path="url(#a)"><path d="M13.966,1.481a1.837,1.837,0,0,0-.381-.806,1.551,1.551,0,0,0-.124-.137A1.845,1.845,0,0,0,12.161,0H1.839a1.826,1.826,0,0,0-1.3.539A1.613,1.613,0,0,0,.414.677a1.815,1.815,0,0,0-.378.8A1.776,1.776,0,0,0,0,1.839v7.25a1.849,1.849,0,0,0,.539,1.3c.041.041.083.079.127.116a1.843,1.843,0,0,0,1.173.422H12.161a1.829,1.829,0,0,0,1.175-.425,1.592,1.592,0,0,0,.125-.113,1.828,1.828,0,0,0,.376-.543l.012-.029A1.813,1.813,0,0,0,14,9.089V1.839a1.884,1.884,0,0,0-.034-.357M.952,1.173a.865.865,0,0,1,.1-.12A1.1,1.1,0,0,1,1.839.728H12.161a1.1,1.1,0,0,1,.785.326,1.108,1.108,0,0,1,.1.117l.079.106-5.51,4.8a.937.937,0,0,1-1.231,0l-5.5-4.8ZM.732,9.153a.439.439,0,0,1,0-.064v-7.1L5,5.719.771,9.409Zm11.981.9a1.1,1.1,0,0,1-.551.146H1.839a1.1,1.1,0,0,1-.551-.146l-.173-.1L5.488,6.142l.479.417a1.573,1.573,0,0,0,2.067,0l.479-.417,4.372,3.812Zm.56-.964a.459.459,0,0,1,0,.063l-.038.259L9,5.721l4.275-3.73Z" transform="translate(0 0)"/></g></svg>