<svg xmlns="http://www.w3.org/2000/svg" xmlns:xlink="http://www.w3.org/1999/xlink" viewBox="0 0 26.728 34.083"><defs><clipPath id="a"><rect width="26.728" height="34.083" fill="none"/></clipPath></defs><g clip-path="url(#a)"><path d="M37.366,35.626a1.376,1.376,0,0,1,.8.259L54.149,47.427a1.361,1.361,0,0,1-.044,2.241l-3.638,2.419L54.9,58.761a1.369,1.369,0,0,1-.382,1.892l-1.974,1.312a1.366,1.366,0,0,1-1.892-.382L46.19,54.866l-3.613,2.466a1.361,1.361,0,0,1-2.083-.826L36.037,37.3a1.348,1.348,0,0,1,.255-1.151A1.383,1.383,0,0,1,37.366,35.626ZM52.781,48.521l-14.9-10.76,4.169,17.96,3.509-2.4a1.365,1.365,0,0,1,1.891.38l4.466,6.717,1.413-.99-4.442-6.681a1.367,1.367,0,0,1,.38-1.891Z" transform="translate(-28.404 -28.11)" fill="#333"/><path d="M-.97.933a.843.843,0,0,1-.7-.373L-3.856-2.685a.844.844,0,0,1,.228-1.171.844.844,0,0,1,1.171.228L-.271-.383A.844.844,0,0,1-.5.789.84.84,0,0,1-.97.933Z" transform="translate(7.262 4.566)" fill="#333"/><path d="M.334-1.958a.853.853,0,0,1-.086,0l-3.49-.354A.844.844,0,0,1-4-3.242.844.844,0,0,1-3.071-4l3.49.354a.844.844,0,0,1,.754.925A.844.844,0,0,1,.334-1.958Z" transform="translate(4 11.117)" fill="#333"/><path d="M-3.156,1.057a.844.844,0,0,1-.236-.034A.844.844,0,0,1-3.967-.023l.981-3.369A.844.844,0,0,1-1.94-3.967a.844.844,0,0,1,.574,1.046L-2.347.449A.844.844,0,0,1-3.156,1.057Z" transform="translate(13.578 4.001)" fill="#333"/></g></svg>